# Blender v2.82 (sub 7) OBJ File: 'fallendown.blend'
# www.blender.org
mtllib fallendown.mtl
o Cylinder_Cylinder.001
v 0.000000 0.000000 -1.000000
v 0.000000 400.000000 -1.000000
v 0.195090 0.000000 -0.980785
v 0.195090 400.000000 -0.980785
v 0.382683 0.000000 -0.923880
v 0.382683 400.000000 -0.923880
v 0.555570 0.000000 -0.831470
v 0.555570 400.000000 -0.831470
v 0.707107 0.000000 -0.707107
v 0.707107 400.000000 -0.707107
v 0.831470 0.000000 -0.555570
v 0.831470 400.000000 -0.555570
v 0.923880 0.000000 -0.382683
v 0.923880 400.000000 -0.382683
v 0.980785 0.000000 -0.195090
v 0.980785 400.000000 -0.195090
v 1.000000 0.000000 -0.000000
v 1.000000 400.000000 -0.000000
v 0.980785 0.000000 0.195090
v 0.980785 400.000000 0.195090
v 0.923880 0.000000 0.382683
v 0.923880 400.000000 0.382683
v 0.831470 0.000000 0.555570
v 0.831470 400.000000 0.555570
v 0.707107 0.000000 0.707107
v 0.707107 400.000000 0.707107
v 0.555570 0.000000 0.831470
v 0.555570 400.000000 0.831470
v 0.382683 0.000000 0.923880
v 0.382683 400.000000 0.923880
v 0.195090 0.000000 0.980785
v 0.195090 400.000000 0.980785
v -0.000000 0.000000 1.000000
v -0.000000 400.000000 1.000000
v -0.195091 0.000000 0.980785
v -0.195091 400.000000 0.980785
v -0.382684 0.000000 0.923879
v -0.382684 400.000000 0.923879
v -0.555571 0.000000 0.831469
v -0.555571 400.000000 0.831469
v -0.707107 0.000000 0.707106
v -0.707107 400.000000 0.707106
v -0.831470 0.000000 0.555570
v -0.831470 400.000000 0.555570
v -0.923880 0.000000 0.382683
v -0.923880 400.000000 0.382683
v -0.980785 0.000000 0.195089
v -0.980785 400.000000 0.195089
v -1.000000 0.000000 -0.000001
v -1.000000 400.000000 -0.000001
v -0.980785 0.000000 -0.195091
v -0.980785 400.000000 -0.195091
v -0.923879 0.000000 -0.382684
v -0.923879 400.000000 -0.382684
v -0.831469 0.000000 -0.555571
v -0.831469 400.000000 -0.555571
v -0.707106 0.000000 -0.707108
v -0.707106 400.000000 -0.707108
v -0.555569 0.000000 -0.831470
v -0.555569 400.000000 -0.831470
v -0.382682 0.000000 -0.923880
v -0.382682 400.000000 -0.923880
v -0.195089 0.000000 -0.980786
v -0.195089 400.000000 -0.980786
vt 1.000000 1.000000
vt 0.968750 0.500000
vt 1.000000 0.500000
vt 0.968750 1.000000
vt 0.937500 0.500000
vt 0.937500 1.000000
vt 0.906250 0.500000
vt 0.906250 1.000000
vt 0.875000 0.500000
vt 0.875000 1.000000
vt 0.843750 0.500000
vt 0.843750 1.000000
vt 0.812500 0.500000
vt 0.812500 1.000000
vt 0.781250 0.500000
vt 0.781250 1.000000
vt 0.750000 0.500000
vt 0.750000 1.000000
vt 0.718750 0.500000
vt 0.718750 1.000000
vt 0.687500 0.500000
vt 0.687500 1.000000
vt 0.656250 0.500000
vt 0.656250 1.000000
vt 0.625000 0.500000
vt 0.625000 1.000000
vt 0.593750 0.500000
vt 0.593750 1.000000
vt 0.562500 0.500000
vt 0.562500 1.000000
vt 0.531250 0.500000
vt 0.531250 1.000000
vt 0.500000 0.500000
vt 0.500000 1.000000
vt 0.468750 0.500000
vt 0.468750 1.000000
vt 0.437500 0.500000
vt 0.437500 1.000000
vt 0.406250 0.500000
vt 0.406250 1.000000
vt 0.375000 0.500000
vt 0.375000 1.000000
vt 0.343750 0.500000
vt 0.343750 1.000000
vt 0.312500 0.500000
vt 0.312500 1.000000
vt 0.281250 0.500000
vt 0.281250 1.000000
vt 0.250000 0.500000
vt 0.250000 1.000000
vt 0.218750 0.500000
vt 0.218750 1.000000
vt 0.187500 0.500000
vt 0.187500 1.000000
vt 0.156250 0.500000
vt 0.156250 1.000000
vt 0.125000 0.500000
vt 0.125000 1.000000
vt 0.093750 0.500000
vt 0.093750 1.000000
vt 0.062500 0.500000
vt 0.028269 0.341844
vt 0.158156 0.028269
vt 0.471731 0.158156
vt 0.062500 1.000000
vt 0.031250 0.500000
vt 0.031250 1.000000
vt 0.000000 0.500000
vt 0.985388 0.296822
vt 0.796822 0.014612
vt 0.514611 0.203179
vt 0.341844 0.471731
vt 0.296822 0.485388
vt 0.250000 0.490000
vt 0.203179 0.485389
vt 0.158156 0.471731
vt 0.116663 0.449553
vt 0.080295 0.419706
vt 0.050447 0.383337
vt 0.014612 0.296822
vt 0.010000 0.250000
vt 0.014611 0.203179
vt 0.028269 0.158156
vt 0.050447 0.116663
vt 0.080294 0.080294
vt 0.116663 0.050447
vt 0.203178 0.014612
vt 0.250000 0.010000
vt 0.296822 0.014612
vt 0.341844 0.028269
vt 0.383337 0.050447
vt 0.419706 0.080294
vt 0.449553 0.116663
vt 0.485388 0.203178
vt 0.490000 0.250000
vt 0.485388 0.296822
vt 0.471731 0.341844
vt 0.449553 0.383337
vt 0.419706 0.419706
vt 0.383337 0.449553
vt 0.000000 1.000000
vt 0.703179 0.485389
vt 0.750000 0.490000
vt 0.883337 0.449553
vt 0.796822 0.485388
vt 0.841844 0.471731
vt 0.919706 0.419706
vt 0.949553 0.383337
vt 0.971731 0.341844
vt 0.990000 0.250000
vt 0.949553 0.116663
vt 0.985388 0.203178
vt 0.971731 0.158156
vt 0.919706 0.080294
vt 0.883337 0.050447
vt 0.841844 0.028269
vt 0.750000 0.010000
vt 0.703178 0.014612
vt 0.658156 0.028269
vt 0.616663 0.050447
vt 0.580294 0.080294
vt 0.550447 0.116663
vt 0.528269 0.158156
vt 0.510000 0.250000
vt 0.550447 0.383337
vt 0.514612 0.296822
vt 0.528269 0.341844
vt 0.580295 0.419706
vt 0.616663 0.449553
vt 0.658156 0.471731
vn 0.0980 0.0000 -0.9952
vn 0.2903 0.0000 -0.9569
vn 0.4714 0.0000 -0.8819
vn 0.6344 0.0000 -0.7730
vn 0.7730 0.0000 -0.6344
vn 0.8819 0.0000 -0.4714
vn 0.9569 0.0000 -0.2903
vn 0.9952 0.0000 -0.0980
vn 0.9952 0.0000 0.0980
vn 0.9569 0.0000 0.2903
vn 0.8819 0.0000 0.4714
vn 0.7730 0.0000 0.6344
vn 0.6344 0.0000 0.7730
vn 0.4714 0.0000 0.8819
vn 0.2903 0.0000 0.9569
vn 0.0980 0.0000 0.9952
vn -0.0980 0.0000 0.9952
vn -0.2903 0.0000 0.9569
vn -0.4714 0.0000 0.8819
vn -0.6344 0.0000 0.7730
vn -0.7730 0.0000 0.6344
vn -0.8819 0.0000 0.4714
vn -0.9569 0.0000 0.2903
vn -0.9952 0.0000 0.0980
vn -0.9952 0.0000 -0.0980
vn -0.9569 0.0000 -0.2903
vn -0.8819 0.0000 -0.4714
vn -0.7730 0.0000 -0.6344
vn -0.6344 0.0000 -0.7730
vn -0.4714 0.0000 -0.8819
vn 0.0000 1.0000 0.0000
vn -0.2903 0.0000 -0.9569
vn -0.0980 0.0000 -0.9952
vn 0.0000 -1.0000 0.0000
vn 0.0000 1.0000 0.0020
vn 0.0000 1.0000 -0.0010
vn 0.0000 1.0000 0.0005
vn 0.0000 1.0000 -0.0007
vn 0.0000 1.0000 0.0014
vn 0.0000 1.0000 -0.0020
vn 0.0000 1.0000 0.0010
vn 0.0000 1.0000 -0.0004
vn 0.0000 1.0000 0.0004
vn 0.0000 1.0000 -0.0001
usemtl FALLENDN
s off
f 2/1/1 3/2/1 1/3/1
f 4/4/2 5/5/2 3/2/2
f 6/6/3 7/7/3 5/5/3
f 8/8/4 9/9/4 7/7/4
f 10/10/5 11/11/5 9/9/5
f 12/12/6 13/13/6 11/11/6
f 14/14/7 15/15/7 13/13/7
f 16/16/8 17/17/8 15/15/8
f 18/18/9 19/19/9 17/17/9
f 20/20/10 21/21/10 19/19/10
f 22/22/11 23/23/11 21/21/11
f 24/24/12 25/25/12 23/23/12
f 26/26/13 27/27/13 25/25/13
f 28/28/14 29/29/14 27/27/14
f 30/30/15 31/31/15 29/29/15
f 32/32/16 33/33/16 31/31/16
f 34/34/17 35/35/17 33/33/17
f 36/36/18 37/37/18 35/35/18
f 38/38/19 39/39/19 37/37/19
f 40/40/20 41/41/20 39/39/20
f 42/42/21 43/43/21 41/41/21
f 44/44/22 45/45/22 43/43/22
f 46/46/23 47/47/23 45/45/23
f 48/48/24 49/49/24 47/47/24
f 50/50/25 51/51/25 49/49/25
f 52/52/26 53/53/26 51/51/26
f 54/54/27 55/55/27 53/53/27
f 56/56/28 57/57/28 55/55/28
f 58/58/29 59/59/29 57/57/29
f 60/60/30 61/61/30 59/59/30
f 54/62/31 38/63/31 22/64/31
f 62/65/32 63/66/32 61/61/32
f 64/67/33 1/68/33 63/66/33
f 15/69/34 31/70/34 47/71/34
f 2/1/1 4/4/1 3/2/1
f 4/4/2 6/6/2 5/5/2
f 6/6/3 8/8/3 7/7/3
f 8/8/4 10/10/4 9/9/4
f 10/10/5 12/12/5 11/11/5
f 12/12/6 14/14/6 13/13/6
f 14/14/7 16/16/7 15/15/7
f 16/16/8 18/18/8 17/17/8
f 18/18/9 20/20/9 19/19/9
f 20/20/10 22/22/10 21/21/10
f 22/22/11 24/24/11 23/23/11
f 24/24/12 26/26/12 25/25/12
f 26/26/13 28/28/13 27/27/13
f 28/28/14 30/30/14 29/29/14
f 30/30/15 32/32/15 31/31/15
f 32/32/16 34/34/16 33/33/16
f 34/34/17 36/36/17 35/35/17
f 36/36/18 38/38/18 37/37/18
f 38/38/19 40/40/19 39/39/19
f 40/40/20 42/42/20 41/41/20
f 42/42/21 44/44/21 43/43/21
f 44/44/22 46/46/22 45/45/22
f 46/46/23 48/48/23 47/47/23
f 48/48/24 50/50/24 49/49/24
f 50/50/25 52/52/25 51/51/25
f 52/52/26 54/54/26 53/53/26
f 54/54/27 56/56/27 55/55/27
f 56/56/28 58/58/28 57/57/28
f 58/58/29 60/60/29 59/59/29
f 60/60/30 62/65/30 61/61/30
f 6/72/31 4/73/31 2/74/31
f 2/74/35 64/75/35 62/76/35
f 62/76/36 60/77/36 58/78/36
f 58/78/31 56/79/31 54/62/31
f 54/62/31 52/80/31 50/81/31
f 50/81/37 48/82/37 46/83/37
f 46/83/38 44/84/38 38/63/38
f 44/84/31 42/85/31 38/63/31
f 42/85/31 40/86/31 38/63/31
f 38/63/31 36/87/31 34/88/31
f 34/88/39 32/89/39 38/63/39
f 32/89/31 30/90/31 38/63/31
f 30/90/40 28/91/40 26/92/40
f 26/92/41 24/93/41 22/64/41
f 22/64/31 20/94/31 18/95/31
f 18/95/31 16/96/31 14/97/31
f 14/97/41 12/98/41 10/99/41
f 10/99/40 8/100/40 6/72/40
f 6/72/31 2/74/31 62/76/31
f 62/76/42 58/78/42 6/72/42
f 58/78/43 54/62/43 6/72/43
f 54/62/31 50/81/31 38/63/31
f 50/81/43 46/83/43 38/63/43
f 30/90/31 26/92/31 38/63/31
f 26/92/31 22/64/31 38/63/31
f 22/64/31 18/95/31 14/97/31
f 14/97/44 10/99/44 22/64/44
f 10/99/31 6/72/31 22/64/31
f 6/72/31 54/62/31 22/64/31
f 62/65/32 64/67/32 63/66/32
f 64/67/33 2/101/33 1/68/33
f 63/102/34 1/103/34 7/104/34
f 1/103/34 3/105/34 7/104/34
f 3/105/34 5/106/34 7/104/34
f 7/104/34 9/107/34 11/108/34
f 11/108/34 13/109/34 7/104/34
f 13/109/34 15/69/34 7/104/34
f 15/69/34 17/110/34 23/111/34
f 17/110/34 19/112/34 23/111/34
f 19/112/34 21/113/34 23/111/34
f 23/111/34 25/114/34 31/70/34
f 25/114/34 27/115/34 31/70/34
f 27/115/34 29/116/34 31/70/34
f 31/70/34 33/117/34 35/118/34
f 35/118/34 37/119/34 31/70/34
f 37/119/34 39/120/34 31/70/34
f 39/120/34 41/121/34 43/122/34
f 43/122/34 45/123/34 47/71/34
f 47/71/34 49/124/34 55/125/34
f 49/124/34 51/126/34 55/125/34
f 51/126/34 53/127/34 55/125/34
f 55/125/34 57/128/34 63/102/34
f 57/128/34 59/129/34 63/102/34
f 59/129/34 61/130/34 63/102/34
f 39/120/34 43/122/34 47/71/34
f 63/102/34 7/104/34 15/69/34
f 15/69/34 23/111/34 31/70/34
f 31/70/34 39/120/34 47/71/34
f 47/71/34 55/125/34 63/102/34
f 63/102/34 15/69/34 47/71/34
o Cylinder.Inside_Cylinder.002
v 0.000000 0.000000 -1.000000
v 0.000000 400.000000 -1.000000
v 0.195090 0.000000 -0.980785
v 0.195090 400.000000 -0.980785
v 0.382683 0.000000 -0.923880
v 0.382683 400.000000 -0.923880
v 0.555570 0.000000 -0.831470
v 0.555570 400.000000 -0.831470
v 0.707107 0.000000 -0.707107
v 0.707107 400.000000 -0.707107
v 0.831470 0.000000 -0.555570
v 0.831470 400.000000 -0.555570
v 0.923880 0.000000 -0.382683
v 0.923880 400.000000 -0.382683
v 0.980785 0.000000 -0.195090
v 0.980785 400.000000 -0.195090
v 1.000000 0.000000 -0.000000
v 1.000000 400.000000 -0.000000
v 0.980785 0.000000 0.195090
v 0.980785 400.000000 0.195090
v 0.923880 0.000000 0.382683
v 0.923880 400.000000 0.382683
v 0.831470 0.000000 0.555570
v 0.831470 400.000000 0.555570
v 0.707107 0.000000 0.707107
v 0.707107 400.000000 0.707107
v 0.555570 0.000000 0.831470
v 0.555570 400.000000 0.831470
v 0.382683 0.000000 0.923880
v 0.382683 400.000000 0.923880
v 0.195090 0.000000 0.980785
v 0.195090 400.000000 0.980785
v -0.000000 0.000000 1.000000
v -0.000000 400.000000 1.000000
v -0.195091 0.000000 0.980785
v -0.195091 400.000000 0.980785
v -0.382684 0.000000 0.923879
v -0.382684 400.000000 0.923879
v -0.555571 0.000000 0.831469
v -0.555571 400.000000 0.831469
v -0.707107 0.000000 0.707106
v -0.707107 400.000000 0.707106
v -0.831470 0.000000 0.555570
v -0.831470 400.000000 0.555570
v -0.923880 0.000000 0.382683
v -0.923880 400.000000 0.382683
v -0.980785 0.000000 0.195089
v -0.980785 400.000000 0.195089
v -1.000000 0.000000 -0.000001
v -1.000000 400.000000 -0.000001
v -0.980785 0.000000 -0.195091
v -0.980785 400.000000 -0.195091
v -0.923879 0.000000 -0.382684
v -0.923879 400.000000 -0.382684
v -0.831469 0.000000 -0.555571
v -0.831469 400.000000 -0.555571
v -0.707106 0.000000 -0.707108
v -0.707106 400.000000 -0.707108
v -0.555569 0.000000 -0.831470
v -0.555569 400.000000 -0.831470
v -0.382682 0.000000 -0.923880
v -0.382682 400.000000 -0.923880
v -0.195089 0.000000 -0.980786
v -0.195089 400.000000 -0.980786
vt 0.968750 0.500000
vt 1.000000 1.000000
vt 1.000000 0.500000
vt 0.937500 0.500000
vt 0.968750 1.000000
vt 0.906250 0.500000
vt 0.937500 1.000000
vt 0.875000 0.500000
vt 0.906250 1.000000
vt 0.843750 0.500000
vt 0.875000 1.000000
vt 0.812500 0.500000
vt 0.843750 1.000000
vt 0.781250 0.500000
vt 0.812500 1.000000
vt 0.750000 0.500000
vt 0.781250 1.000000
vt 0.718750 0.500000
vt 0.750000 1.000000
vt 0.687500 0.500000
vt 0.718750 1.000000
vt 0.656250 0.500000
vt 0.687500 1.000000
vt 0.625000 0.500000
vt 0.656250 1.000000
vt 0.593750 0.500000
vt 0.625000 1.000000
vt 0.562500 0.500000
vt 0.593750 1.000000
vt 0.531250 0.500000
vt 0.562500 1.000000
vt 0.500000 0.500000
vt 0.531250 1.000000
vt 0.468750 0.500000
vt 0.500000 1.000000
vt 0.437500 0.500000
vt 0.468750 1.000000
vt 0.406250 0.500000
vt 0.437500 1.000000
vt 0.375000 0.500000
vt 0.406250 1.000000
vt 0.343750 0.500000
vt 0.375000 1.000000
vt 0.312500 0.500000
vt 0.343750 1.000000
vt 0.281250 0.500000
vt 0.312500 1.000000
vt 0.250000 0.500000
vt 0.281250 1.000000
vt 0.218750 0.500000
vt 0.250000 1.000000
vt 0.187500 0.500000
vt 0.218750 1.000000
vt 0.156250 0.500000
vt 0.187500 1.000000
vt 0.125000 0.500000
vt 0.156250 1.000000
vt 0.093750 0.500000
vt 0.125000 1.000000
vt 0.062500 0.500000
vt 0.093750 1.000000
vt 0.490000 0.250000
vt 0.250000 0.010000
vt 0.010000 0.250000
vt 0.031250 0.500000
vt 0.062500 1.000000
vt 0.000000 0.500000
vt 0.031250 1.000000
vt 0.514612 0.296822
vt 0.703178 0.014612
vt 0.985388 0.203178
vt 0.250000 0.490000
vt 0.296822 0.485388
vt 0.341844 0.471731
vt 0.383337 0.449553
vt 0.419706 0.419706
vt 0.449553 0.383337
vt 0.471731 0.341844
vt 0.485388 0.296822
vt 0.485388 0.203178
vt 0.471731 0.158156
vt 0.449553 0.116663
vt 0.419706 0.080294
vt 0.383337 0.050447
vt 0.341844 0.028269
vt 0.296822 0.014612
vt 0.203178 0.014612
vt 0.158156 0.028269
vt 0.116663 0.050447
vt 0.080294 0.080294
vt 0.050447 0.116663
vt 0.028269 0.158156
vt 0.014611 0.203179
vt 0.014612 0.296822
vt 0.028269 0.341844
vt 0.050447 0.383337
vt 0.080295 0.419706
vt 0.116663 0.449553
vt 0.158156 0.471731
vt 0.203179 0.485389
vt 0.000000 1.000000
vt 0.796822 0.485388
vt 0.750000 0.490000
vt 0.703179 0.485389
vt 0.658156 0.471731
vt 0.616663 0.449553
vt 0.580295 0.419706
vt 0.550447 0.383337
vt 0.528269 0.341844
vt 0.510000 0.250000
vt 0.550447 0.116663
vt 0.514611 0.203179
vt 0.528269 0.158156
vt 0.580294 0.080294
vt 0.616663 0.050447
vt 0.658156 0.028269
vt 0.750000 0.010000
vt 0.796822 0.014612
vt 0.841844 0.028269
vt 0.883337 0.050447
vt 0.919706 0.080294
vt 0.949553 0.116663
vt 0.971731 0.158156
vt 0.990000 0.250000
vt 0.985388 0.296822
vt 0.971731 0.341844
vt 0.949553 0.383337
vt 0.919706 0.419706
vt 0.883337 0.449553
vt 0.841844 0.471731
vn -0.0980 0.0000 0.9952
vn -0.2903 0.0000 0.9569
vn -0.4714 0.0000 0.8819
vn -0.6344 0.0000 0.7730
vn -0.7730 0.0000 0.6344
vn -0.8819 0.0000 0.4714
vn -0.9569 0.0000 0.2903
vn -0.9952 0.0000 0.0980
vn -0.9952 0.0000 -0.0980
vn -0.9569 0.0000 -0.2903
vn -0.8819 0.0000 -0.4714
vn -0.7730 0.0000 -0.6344
vn -0.6344 0.0000 -0.7730
vn -0.4714 0.0000 -0.8819
vn -0.2903 0.0000 -0.9569
vn -0.0980 0.0000 -0.9952
vn 0.0980 0.0000 -0.9952
vn 0.2903 0.0000 -0.9569
vn 0.4714 0.0000 -0.8819
vn 0.6344 0.0000 -0.7730
vn 0.7730 0.0000 -0.6344
vn 0.8819 0.0000 -0.4714
vn 0.9569 0.0000 -0.2903
vn 0.9952 0.0000 -0.0980
vn 0.9952 0.0000 0.0980
vn 0.9569 0.0000 0.2903
vn 0.8819 0.0000 0.4714
vn 0.7730 0.0000 0.6344
vn 0.6344 0.0000 0.7730
vn 0.4714 0.0000 0.8819
vn 0.0000 -1.0000 0.0000
vn 0.2903 0.0000 0.9569
vn 0.0980 0.0000 0.9952
vn 0.0000 1.0000 0.0000
vn 0.0000 -1.0000 0.0014
vn 0.0000 -1.0000 -0.0010
vn 0.0000 -1.0000 -0.0003
vn 0.0000 -1.0000 0.0020
vn 0.0000 -1.0000 -0.0014
vn 0.0000 -1.0000 -0.0005
vn 0.0000 -1.0000 -0.0020
vn 0.0000 -1.0000 -0.0004
vn 0.0000 -1.0000 0.0001
vn 0.0000 -1.0000 -0.0002
usemtl FALLENDN
s off
f 67/131/45 66/132/45 65/133/45
f 69/134/46 68/135/46 67/131/46
f 71/136/47 70/137/47 69/134/47
f 73/138/48 72/139/48 71/136/48
f 75/140/49 74/141/49 73/138/49
f 77/142/50 76/143/50 75/140/50
f 79/144/51 78/145/51 77/142/51
f 81/146/52 80/147/52 79/144/52
f 83/148/53 82/149/53 81/146/53
f 85/150/54 84/151/54 83/148/54
f 87/152/55 86/153/55 85/150/55
f 89/154/56 88/155/56 87/152/56
f 91/156/57 90/157/57 89/154/57
f 93/158/58 92/159/58 91/156/58
f 95/160/59 94/161/59 93/158/59
f 97/162/60 96/163/60 95/160/60
f 99/164/61 98/165/61 97/162/61
f 101/166/62 100/167/62 99/164/62
f 103/168/63 102/169/63 101/166/63
f 105/170/64 104/171/64 103/168/64
f 107/172/65 106/173/65 105/170/65
f 109/174/66 108/175/66 107/172/66
f 111/176/67 110/177/67 109/174/67
f 113/178/68 112/179/68 111/176/68
f 115/180/69 114/181/69 113/178/69
f 117/182/70 116/183/70 115/180/70
f 119/184/71 118/185/71 117/182/71
f 121/186/72 120/187/72 119/184/72
f 123/188/73 122/189/73 121/186/73
f 125/190/74 124/191/74 123/188/74
f 82/192/75 98/193/75 114/194/75
f 127/195/76 126/196/76 125/190/76
f 65/197/77 128/198/77 127/195/77
f 115/199/78 99/200/78 83/201/78
f 67/131/45 68/135/45 66/132/45
f 69/134/46 70/137/46 68/135/46
f 71/136/47 72/139/47 70/137/47
f 73/138/48 74/141/48 72/139/48
f 75/140/49 76/143/49 74/141/49
f 77/142/50 78/145/50 76/143/50
f 79/144/51 80/147/51 78/145/51
f 81/146/52 82/149/52 80/147/52
f 83/148/53 84/151/53 82/149/53
f 85/150/54 86/153/54 84/151/54
f 87/152/55 88/155/55 86/153/55
f 89/154/56 90/157/56 88/155/56
f 91/156/57 92/159/57 90/157/57
f 93/158/58 94/161/58 92/159/58
f 95/160/59 96/163/59 94/161/59
f 97/162/60 98/165/60 96/163/60
f 99/164/61 100/167/61 98/165/61
f 101/166/62 102/169/62 100/167/62
f 103/168/63 104/171/63 102/169/63
f 105/170/64 106/173/64 104/171/64
f 107/172/65 108/175/65 106/173/65
f 109/174/66 110/177/66 108/175/66
f 111/176/67 112/179/67 110/177/67
f 113/178/68 114/181/68 112/179/68
f 115/180/69 116/183/69 114/181/69
f 117/182/70 118/185/70 116/183/70
f 119/184/71 120/187/71 118/185/71
f 121/186/72 122/189/72 120/187/72
f 123/188/73 124/191/73 122/189/73
f 125/190/74 126/196/74 124/191/74
f 66/202/75 68/203/75 70/204/75
f 70/204/79 72/205/79 66/202/79
f 72/205/75 74/206/75 66/202/75
f 74/206/80 76/207/80 78/208/80
f 78/208/81 80/209/81 82/192/81
f 82/192/75 84/210/75 86/211/75
f 86/211/80 88/212/80 90/213/80
f 90/213/82 92/214/82 94/215/82
f 94/215/79 96/216/79 90/213/79
f 96/216/83 98/193/83 90/213/83
f 98/193/75 100/217/75 102/218/75
f 102/218/75 104/219/75 106/220/75
f 106/220/75 108/221/75 114/194/75
f 108/221/75 110/222/75 114/194/75
f 110/222/84 112/223/84 114/194/84
f 114/194/75 116/224/75 118/225/75
f 118/225/75 120/226/75 122/227/75
f 122/227/82 124/228/82 126/229/82
f 126/229/85 128/230/85 66/202/85
f 74/206/86 78/208/86 66/202/86
f 78/208/75 82/192/75 66/202/75
f 82/192/75 86/211/75 90/213/75
f 98/193/87 102/218/87 114/194/87
f 102/218/88 106/220/88 114/194/88
f 114/194/75 118/225/75 122/227/75
f 122/227/75 126/229/75 66/202/75
f 82/192/75 90/213/75 98/193/75
f 114/194/75 122/227/75 66/202/75
f 66/202/75 82/192/75 114/194/75
f 127/195/76 128/198/76 126/196/76
f 65/197/77 66/231/77 128/198/77
f 67/232/78 65/233/78 127/234/78
f 127/234/78 125/235/78 123/236/78
f 123/236/78 121/237/78 115/199/78
f 121/237/78 119/238/78 115/199/78
f 119/238/78 117/239/78 115/199/78
f 115/199/78 113/240/78 107/241/78
f 113/240/78 111/242/78 107/241/78
f 111/242/78 109/243/78 107/241/78
f 107/241/78 105/244/78 103/245/78
f 103/245/78 101/246/78 99/200/78
f 99/200/78 97/247/78 95/248/78
f 95/248/78 93/249/78 91/250/78
f 91/250/78 89/251/78 87/252/78
f 87/252/78 85/253/78 83/201/78
f 83/201/78 81/254/78 79/255/78
f 79/255/78 77/256/78 75/257/78
f 75/257/78 73/258/78 71/259/78
f 71/259/78 69/260/78 67/232/78
f 67/232/78 127/234/78 115/199/78
f 127/234/78 123/236/78 115/199/78
f 107/241/78 103/245/78 115/199/78
f 103/245/78 99/200/78 115/199/78
f 99/200/78 95/248/78 91/250/78
f 91/250/78 87/252/78 99/200/78
f 87/252/78 83/201/78 99/200/78
f 83/201/78 79/255/78 67/232/78
f 79/255/78 75/257/78 67/232/78
f 75/257/78 71/259/78 67/232/78
f 67/232/78 115/199/78 83/201/78
